FFmpeg version SVN-r25716, Copyright (c) 2000-2010 the FFmpeg developers  built on Nov 10 2010 12:23:18 with gcc 4.1.2 20080704 (Red Hat 4.1.2-48)  configuration: --enable-libmp3lame --enable-shared --disable-mmx --arch=x86_64  libavutil     50.33. 0 / 50.33. 0  libavcore      0.12. 1 /  0.12. 1  libavcodec    52.94. 4 / 52.94. 4  libavformat   52.84. 0 / 52.84. 0  libavdevice   52. 2. 2 / 52. 2. 2  libavfilter    1.59. 0 /  1.59. 0  libswscale     0.12. 0 /  0.12. 0Seems stream 0 codec frame rate differs from container frame rate: 1000.00 (1000/1) -> 12.05 (1000/83)Input #0, mov,mp4,m4a,3gp,3g2,mj2, from '/RAID10/data/converted_video_files/25632.mov':  Metadata:    major_brand     : qt      minor_version   : 537199360    compatible_brands: qt    Duration: 00:00:17.01, start: 0.000000, bitrate: 2635 kb/s    Stream #0.0(eng): Video: mpeg4, yuv420p, 988x574 [PAR 1:1 DAR 494:287], 2634 kb/s, 12.05 fps, 12.05 tbr, 1k tbn, 1k tbc[buffer @ 0xdc7cf40] w:988 h:574 pixfmt:yuv420pOutput #0, flv, to '/RAID10/data/converted_video_files/25632.flv':  Metadata:    encoder         : Lavf52.84.0    Stream #0.0(eng): Video: flv, yuv420p, 988x574 [PAR 1:1 DAR 494:287], q=2-31, 600 kb/s, 1k tbn, 24 tbcStream mapping:  Stream #0.0 -> #0.0Press [q] to stop encodingframe=   15 fps=  0 q=29.8 size=     460kB time=1.21 bitrate=3113.6kbits/s    frame=   32 fps= 30 q=31.0 size=     629kB time=2.62 bitrate=1963.7kbits/s    frame=   46 fps= 29 q=31.0 size=     762kB time=3.79 bitrate=1646.9kbits/s    frame=   64 fps= 31 q=31.0 size=     954kB time=5.25 bitrate=1487.9kbits/s    frame=   84 fps= 32 q=31.0 size=    1135kB time=6.92 bitrate=1343.8kbits/s    frame=  104 fps= 33 q=31.0 size=    1376kB time=8.58 bitrate=1313.0kbits/s    frame=  124 fps= 34 q=31.0 size=    1559kB time=10.25 bitrate=1246.0kbits/s    frame=  140 fps= 33 q=31.0 size=    1721kB time=11.58 bitrate=1217.0kbits/s    frame=  157 fps= 33 q=31.0 size=    1878kB time=13.00 bitrate=1183.5kbits/s    frame=  176 fps= 34 q=31.0 size=    2060kB time=14.58 bitrate=1157.2kbits/s    frame=  191 fps= 33 q=31.0 size=    2201kB time=15.79 bitrate=1141.7kbits/s    frame=  205 fps= 33 q=31.0 Lsize=    2327kB time=16.96 bitrate=1123.9kbits/s    video:2323kB audio:0kB global headers:0kB muxing overhead 0.146704%